<svg width="194" height="24" viewBox="0 0 194 24" fill="none" xmlns="http://www.w3.org/2000/svg">
<g id="Vector">
<path d="M27.0901 14.331C25.8151 13.0648 25.8058 10.9815 27.0808 9.71528L35.8148 1.00694C35.9846 0.837961 36.0358 0.585646 35.9428 0.363424C35.852 0.143517 35.6357 0 35.396 0L24.1377 0.0115748C24.1377 0.0115748 24.1307 0.0115748 24.1261 0.0115748C23.5211 0.0162044 22.9488 0.284723 22.5207 0.712963L17.9187 5.30092C17.8257 4.91204 17.6558 4.54167 17.4069 4.21991C17.3859 4.19213 17.365 4.16667 17.3441 4.1412C17.3161 4.11111 17.2882 4.08102 17.2603 4.05324L14.152 0.962964C13.5424 0.356482 12.7142 0.0138896 11.851 0.0115748L0.592677 0C0.353039 0 0.136665 0.143517 0.0459286 0.363424C-0.0471346 0.585646 0.00405087 0.837961 0.173891 1.00694L8.89857 9.66898C10.1735 10.9352 10.1828 13.0185 8.90788 14.2847L0.173891 22.9931C0.00405087 23.162 -0.0471346 23.4144 0.0459286 23.6366C0.136665 23.8565 0.353039 24 0.592677 24L11.851 23.9884C12.2372 23.9884 12.6141 23.9144 12.9701 23.7847L18.07 18.6991C18.163 19.088 18.3329 19.4583 18.5818 19.7801C18.6027 19.8079 18.6237 19.8333 18.6446 19.8588C18.6725 19.8889 18.7005 19.919 18.7284 19.9468L21.8367 23.037C22.4463 23.6435 23.2745 23.9861 24.1377 23.9884L35.396 24C35.6357 24 35.852 23.8565 35.9428 23.6366C36.0358 23.4144 35.9846 23.162 35.8148 22.9931L27.0901 14.331Z" fill="white"/>
<path d="M113.471 2.34954H109.239C109.021 2.34954 108.837 2.4213 108.693 2.60417L99.7167 11.5255V2.8426C99.7167 2.5139 99.5515 2.35186 99.2234 2.35186H95.9313C95.6033 2.35186 95.4381 2.51621 95.4381 2.8426V21.6782C95.4381 22.0046 95.6033 22.169 95.9313 22.169H99.2234C99.5538 22.169 99.7167 22.0046 99.7167 21.6782V13L108.572 21.8773C108.783 22.0695 109.021 22.1667 109.239 22.1667H113.413C113.779 22.1667 113.888 21.9491 113.704 21.6227L104.295 12.2662L113.727 2.89353C113.983 2.60417 113.874 2.34954 113.471 2.34954Z" fill="white"/>
<path d="M143.768 1.81712C137.968 1.81712 134.29 5.74305 133.424 10.2106H120.491V6.28472H131.723C132.052 6.28472 132.217 6.12037 132.217 5.79398V2.84027C132.217 2.51157 132.052 2.34953 131.723 2.34953H116.703C116.373 2.34953 116.21 2.51388 116.21 2.84027V21.6759C116.21 22.0023 116.375 22.1667 116.703 22.1667H119.998C120.326 22.1667 120.491 22.0023 120.491 21.6759V13.7315H133.336C133.987 18.4306 137.721 22.6991 143.768 22.6991C147.046 22.6574 150.048 21.0208 152.339 18.2778C152.537 18.0324 152.498 17.787 152.181 17.6227L149.575 16.0671C149.298 15.9444 149.101 15.9861 148.903 16.2315C147.521 17.9514 145.704 18.9352 143.65 18.9352C140.767 18.9352 138.04 16.7639 137.803 13.7338H153.207C153.524 13.7338 153.682 13.5694 153.682 13.2431V12.956C153.682 5.21759 147.758 1.81944 143.768 1.81944V1.81712ZM137.803 10.213C138.475 7.26388 140.606 5.58564 143.214 5.58564C145.823 5.58564 147.993 7.18287 148.863 10.213H137.803Z" fill="white"/>
<path d="M165.524 1.81712C158.849 1.81712 154.978 7.01851 154.978 12.2593C154.978 17.5 158.849 22.7014 165.524 22.7014C168.802 22.6597 171.803 21.0231 174.095 18.2801C174.293 18.0347 174.253 17.7893 173.937 17.625L171.329 16.0694C171.052 15.9468 170.854 15.9884 170.657 16.2338C169.275 17.9537 167.457 18.9375 165.403 18.9375C162.52 18.9375 159.794 16.7662 159.556 13.7361H174.961C175.277 13.7361 175.435 13.5718 175.435 13.2454V12.9583C175.435 5.21991 169.512 1.82175 165.522 1.82175L165.524 1.81712ZM159.561 10.213C160.233 7.26388 162.365 5.58564 164.973 5.58564C167.581 5.58564 169.751 7.18287 170.622 10.213H159.561Z" fill="white"/>
<path d="M188.653 10.7454L184.332 9.92592C182.685 9.63889 181.74 9.02546 181.74 7.83796C181.74 6.24074 183.55 5.34027 185.402 5.34027C186.719 5.34027 188.406 5.74999 190.342 7.22453C190.63 7.42824 190.877 7.42824 191.082 7.18287L192.85 4.97222C193.057 4.68518 193.015 4.43981 192.768 4.27546C190.216 2.55555 187.871 1.81944 185.277 1.81944C180.298 1.81944 177.457 4.93055 177.457 8.28935C177.457 11.1157 179.021 12.9167 184.618 13.9398L187.047 14.3912C188.611 14.6782 189.639 15.375 189.639 16.6852C189.639 17.7917 188.157 19.1829 185.689 19.1829C183.63 19.1829 181.326 18.0764 179.763 16.6435C179.558 16.3981 179.309 16.3981 179.104 16.6435L176.882 18.8542C176.636 19.0995 176.636 19.3449 176.924 19.5509C179.516 21.6389 182.275 22.7037 185.484 22.7037C191.533 22.7037 193.92 18.9375 193.92 16.0301C193.92 13.1227 192.191 11.4028 188.653 10.7477V10.7454Z" fill="white"/>
<path d="M66.5676 2.35186H69.876C70.1505 2.35186 70.3715 2.57408 70.3715 2.84491V21.7685C70.3715 22.0417 70.1482 22.2616 69.876 22.2616H66.5676C66.293 22.2616 66.072 22.0394 66.072 21.7685V2.84491C66.072 2.57176 66.2953 2.35186 66.5676 2.35186Z" fill="white"/>
<path d="M92.3694 17.6643L89.489 15.9444C89.2005 15.7801 88.9958 15.8218 88.7887 16.1088C87.6766 17.6643 86.0713 18.6898 83.8913 18.6898C80.1455 18.6898 77.4304 15.8241 77.4304 12.2616C77.4304 8.69907 80.1478 5.83333 83.8913 5.83333C86.155 5.83333 87.6766 6.89814 88.7887 8.41203C88.9935 8.69907 89.2005 8.74074 89.489 8.57639L92.3694 6.85648C92.6578 6.69213 92.6997 6.44675 92.5345 6.20138C90.6011 3.62268 87.9256 1.81944 83.8913 1.81944C76.9371 1.81944 72.9028 7.02083 72.9028 12.2616C72.9028 17.5023 76.9371 22.7037 83.8913 22.7037C87.4719 22.7037 90.7221 20.9028 92.5345 18.3218C92.7393 18.0764 92.6578 17.831 92.3694 17.6667V17.6643Z" fill="white"/>
<path d="M63.4476 2.34954H59.2156C58.9969 2.34954 58.8131 2.4213 58.6688 2.60417L49.6929 11.5255V2.8426C49.6929 2.5139 49.5277 2.35186 49.1996 2.35186H45.9075C45.5795 2.35186 45.4143 2.51621 45.4143 2.8426V21.6782C45.4143 22.0046 45.5795 22.169 45.9075 22.169H49.1996C49.53 22.169 49.6929 22.0046 49.6929 21.6782V13L58.5478 21.8773C58.7595 22.0695 58.9969 22.1667 59.2156 22.1667H63.3894C63.7547 22.1667 63.8641 21.9491 63.6803 21.6227L54.2716 12.2662L63.7035 2.89353C63.9595 2.60417 63.8501 2.34954 63.4476 2.34954Z" fill="white"/>
</g>
</svg>
