<?xml version="1.0" encoding="UTF-8"?><svg id="Layer_2" xmlns="http://www.w3.org/2000/svg" viewBox="0 0 534.79 534.79"><defs><style>.cls-1{fill:none;}</style></defs><g style="fill: #ff9819;" id="Layer_1-2"><circle class="cls-1" cx="387.18" cy="147.61" r="48.4"/><path d="m337.7,283.93c-1.39-2.4-3.51-5.02-6.36-7.87s-5.69-5.19-8.18-6.67c-2.49-1.48-4.77-2.37-6.85-2.67-2.07-.3-3.96-.07-5.65.67-1.69.74-3.25,1.82-4.67,3.25s-2.49,2.97-3.2,4.62c-.71,1.66-.89,3.5-.53,5.51.36,2.02,1.29,4.26,2.8,6.71,1.51,2.46,3.75,5.17,6.71,8.14s5.46,4.98,7.83,6.4c2.37,1.42,4.54,2.28,6.49,2.58,1.96.3,3.76.09,5.42-.62,1.66-.71,3.2-1.78,4.62-3.2s2.51-2.98,3.25-4.67c.74-1.69.99-3.54.76-5.56-.24-2.01-1.05-4.22-2.45-6.63Z"/><path d="m195.41,290.69c-1.39-2.4-3.51-5.03-6.36-7.87-3.02-3.02-5.78-5.28-8.27-6.76-2.49-1.48-4.77-2.37-6.85-2.67-2.08-.3-3.96-.07-5.65.67-1.69.74-3.25,1.82-4.67,3.25-1.42,1.42-2.49,2.97-3.2,4.62-.71,1.66-.89,3.5-.53,5.51.36,2.02,1.29,4.25,2.8,6.71,1.51,2.46,3.78,5.2,6.8,8.23,2.85,2.85,5.45,4.98,7.83,6.4,2.37,1.42,4.54,2.28,6.49,2.58,1.96.3,3.76.09,5.43-.62,1.66-.71,3.2-1.78,4.62-3.2,1.42-1.42,2.5-2.98,3.25-4.67.74-1.69.99-3.54.76-5.56-.24-2.01-1.05-4.22-2.45-6.62Z"/><path d="m532.37,48.4c0-26.62-21.78-48.4-48.4-48.4h-176.65c-12.1,0-24.2,4.84-33.88,14.52L14.52,273.45c-19.36,19.36-19.36,50.82,0,70.18l176.65,176.65c19.36,19.36,50.82,19.36,70.18,0l258.93-258.93c9.68-9.68,14.52-21.78,14.52-33.88l-2.42-179.07ZM220.49,310.61c-2.22,5.31-5.38,10-9.47,14.1-4.51,4.51-9.41,7.87-14.72,10.09-5.31,2.22-10.75,3.31-16.32,3.25-5.57-.06-11.09-1.28-16.54-3.65-5.46-2.37-10.55-5.93-15.3-10.67-4.92-4.92-8.61-10.15-11.07-15.7-2.46-5.54-3.73-11.12-3.82-16.72-.09-5.6.96-11.07,3.16-16.41,2.19-5.33,5.54-10.26,10.05-14.76,4.5-4.51,9.46-7.89,14.85-10.14,5.4-2.25,10.89-3.33,16.5-3.25,5.6.09,11.17,1.36,16.72,3.82,5.54,2.46,10.78,6.15,15.7,11.07,4.74,4.74,8.21,9.93,10.41,15.56,2.19,5.63,3.28,11.28,3.25,16.94-.03,5.66-1.16,11.15-3.38,16.45Zm55.36,79.55c-.59,2.08-1.84,4.06-3.73,5.96l-20.63,20.63-27.84-223.14c-.12-1.9.04-3.93.49-6.09.44-2.16,1.82-4.4,4.14-6.71l20.1-20.1,28.01,223.32c.24,2.02.06,4.06-.53,6.14Zm87.02-86.22c-2.23,5.31-5.38,10-9.47,14.1-4.51,4.51-9.41,7.87-14.72,10.09-5.31,2.22-10.75,3.31-16.32,3.25-5.57-.06-11.1-1.29-16.59-3.69-5.48-2.4-10.6-5.97-15.34-10.72-4.92-4.92-8.61-10.15-11.07-15.7-2.46-5.54-3.74-11.12-3.82-16.72-.09-5.6.96-11.07,3.16-16.41,2.19-5.33,5.54-10.26,10.05-14.76s9.46-7.88,14.85-10.14c5.4-2.25,10.89-3.33,16.5-3.25,5.6.09,11.18,1.37,16.72,3.82,5.54,2.46,10.78,6.15,15.7,11.07,4.74,4.74,8.23,9.95,10.45,15.61,2.22,5.66,3.32,11.32,3.29,16.99-.03,5.66-1.16,11.15-3.38,16.45Zm24.31-107.93c-26.62,0-48.4-21.78-48.4-48.4s21.78-48.4,48.4-48.4,48.4,21.78,48.4,48.4-21.78,48.4-48.4,48.4Z"/></g></svg>