<?xml version="1.0" encoding="UTF-8"?><svg id="Layer_2" xmlns="http://www.w3.org/2000/svg" viewBox="0 0 127.79 139.47"><defs><style>.cls-1{fill:#fff;}.cls-1,.cls-2,.cls-3{stroke-width:0px;}.cls-2{fill:#fff;}.cls-3{fill:#fff;}</style></defs><g id="Layer_1-2"><g id="Other_Logos"><path class="cls-2" d="m106.35,124.69c-2.59-.33-5.79-.73-9-1.13-3.95-.49-7.85-.13-11.62,1.06-2.86.91-5.69,1.96-8.43,3.18-6.63,2.95-13.22,5.99-19.78,9.09-4.24,2-8.71,2.99-13.3,2.43-8.74-1.07-16.04-5.01-21.51-12-2.25-2.88-3.61-6.13-3.23-9.92.19-1.91.85-3.68,2.04-5.08,1.87-2.21,3.94-4.28,6.1-6.21,2.35-2.1,4.92-3.95,7.33-5.98.94-.79,1.77-1.73,2.57-2.67,2.52-2.96,3.41-6.38,3.33-10.26-.14-6.62,2.67-11.88,8.01-15.79,2.93-2.14,6.2-3.58,9.65-4.62,3.18-.95,6.41-1.52,9.75-1.76,10.84-.78,18.99,3.61,24.84,12.54,2.45,3.74,5.19,7.18,8.91,9.74,3.96,2.74,8.39,4.14,13.11,4.86,3.45.53,6.7,1.67,9.28,4.17,2.96,2.87,3.72,6.39,3.28,10.41-.56,5.14-2.75,9.38-6.41,12.92-2.85,2.76-6.38,4.08-10.25,4.58-1.33.17-2.67.25-4.67.42Zm-30.76-4.25v-17.55h17.51c.06-.06.13-.13.19-.19,0-3.12,0-6.23,0-9.35l-.18-.18h-17.47v-17.68h-9.84v17.67c-5.83,0-11.57,0-17.3,0-.08.06-.16.13-.24.19v9.63h17.6v17.64c3.22,0,6.36,0,9.5,0,.08-.06.16-.13.24-.19Z"/><path class="cls-2" d="m72.42,44.91c.22-5.69,1.38-10.54,4.68-14.68,2.01-2.52,4.57-4.16,7.9-3.95,2.97.19,5.41,1.61,7.34,3.89,2.81,3.34,4.06,7.31,4.62,11.54.23,1.71.44,3.45.43,5.17-.03,4.95-1.5,9.45-4.66,13.31-2.47,3.01-5.64,4.36-9.5,3.41-2.22-.55-3.98-1.97-5.45-3.7-2.66-3.14-4.17-6.8-4.81-10.83-.25-1.55-.41-3.12-.55-4.16Z"/><path class="cls-2" d="m51.95,23.53c3.03-.03,5.48,1.29,7.64,3.23,3.88,3.49,6.2,7.86,7.12,12.97.3,1.69.7,3.41.67,5.12-.06,4.19-.57,8.29-3.56,11.61-1.69,1.87-3.88,2.92-6.28,3-1.53.05-3.16-.62-4.61-1.28-2.84-1.3-4.9-3.55-6.52-6.17-2.18-3.53-3.89-7.32-4.33-11.45-.44-4.15-.11-8.3,2.13-12.05,1.38-2.3,3.16-4.11,5.88-4.73.61-.14,1.24-.17,1.86-.25Z"/><path class="cls-2" d="m42.83,64.19c.04,2.91-.57,5.65-2.04,8.16-2.07,3.51-6.17,5.24-10.39,3.2-5.08-2.45-8.5-6.49-10.66-11.65-1.28-3.06-1.89-6.27-2.2-9.57-.3-3.19.52-6.1,1.92-8.89.97-1.91,2.42-3.46,4.56-3.94,1.93-.43,3.93-.33,5.83.43,2.86,1.14,5.1,3.08,7.02,5.44,2.92,3.59,4.58,7.76,5.55,12.22.32,1.49.28,3.06.41,4.6Z"/><path class="cls-2" d="m28.92,92.44c-.44,1.9-.61,3.91-1.37,5.67-1.39,3.19-4.08,4.73-7.57,4.85-3.62.13-6.66-1.38-9.37-3.53-4.88-3.85-7.98-8.83-9.13-15-.55-2.95-.24-5.76,1.16-8.39,1.55-2.9,3.92-4.47,7.38-4.53,4.45-.08,7.96,1.81,11.07,4.68,3.86,3.55,6.31,7.94,7.36,13.07.2,1,.13,2.06.18,3.09.1.03.19.05.29.08Z"/><path class="cls-2" d="m100.6,65.76c0-4.82,1.3-9.08,4.72-12.58,3.41-3.49,7.54-3.64,11.3-.71,3.59,2.8,5.38,6.7,6.19,11.05.38,2.04.55,4.17.47,6.24-.14,3.93-1.16,7.63-3.66,10.8-1.69,2.15-3.94,3.36-6.58,3.64-1.8.19-3.48-.62-4.94-1.67-3.68-2.64-5.84-6.31-6.78-10.68-.43-1.99-.49-4.06-.73-6.1Z"/><path class="cls-2" d="m41.44,0c4.04,6.28,7.89,12.27,11.84,18.41-3.25,1.08-6.25,2.09-9.43,3.15-2.97-6.86-3.1-13.96-2.4-21.56Z"/><path class="cls-2" d="m103.91,29.09c5.61,1.86,12.72,12.5,12.13,18.49-1.77,0-3.57.16-5.33-.05-1.28-.15-2.09-1.18-2.45-2.46-1.44-5.03-2.87-10.05-4.3-15.08-.07-.25-.03-.53-.05-.9Z"/><path class="cls-2" d="m17.61,41.06c-2.61-8.23-1.71-15.97,2.42-23.61.48,2.54.94,4.87,1.37,7.22.6,3.26,1.19,6.52,1.78,9.78.12.65.31,1.3.34,1.96.02.38-.12.94-.38,1.12-1.78,1.2-3.61,2.32-5.52,3.53Z"/><path class="cls-2" d="m73.3,5.58c6.23,2.07,15.43,12.63,15.17,17.23-2.08.18-4.16.39-6.25.53-.3.02-.81-.2-.92-.45-2.66-5.69-5.28-11.4-8-17.32Z"/><path class="cls-2" d="m4.1,48.01c.27,1.47.52,2.78.75,4.1.55,3.19,1.09,6.38,1.63,9.57.26,1.54.52,3.08.76,4.63.11.71-.06,1.26-.79,1.67-1.55.89-3.04,1.89-4.55,2.85-3.36-5.08-2.04-16.56,2.2-22.81Z"/><path class="cls-1" d="m48.48,93.17c-.08.06-.16.13-.24.19.08-.06.16-.13.24-.19Z"/><path class="cls-3" d="m93.28,93.36c-.06-.06-.12-.12-.18-.18.06.06.12.12.18.18Z"/><path class="cls-3" d="m93.1,102.9c.06-.06.13-.13.19-.19-.06.06-.13.13-.19.19Z"/><path class="cls-1" d="m75.35,120.63c.08-.06.16-.13.24-.19-.08.06-.16.13-.24.19Z"/></g></g></svg>