<svg version="1.2" xmlns="http://www.w3.org/2000/svg" viewBox="0 0 127 137" width="127" height="137"><style>.a{fill:#ff9819}</style><path class="a" d="m0.3 56.7l3.3-9 1 0.1c0.8 4.4 1.6 8.9 2.4 13.3 0.8 5.2 0.5 5.6-4.8 7.5q-0.9-1.7-1.9-3.5z"/><path fill-rule="evenodd" class="a" d="m106.5 122c-2.3-0.2-3.7-0.1-5-0.4-9.4-2.1-18.1 0-26.5 4.1-6.1 3-12.2 5.7-18.4 8.5-12 5.3-28.5-0.1-35.1-11.5-3-5.2-2.6-10.4 1.6-14.7 2.9-3 6.3-5.6 9.5-8.2 5.2-4.1 8.5-8.9 8.3-16-0.3-6.4 3.3-11.3 8.6-14.7 6.5-4.2 14.2-6.2 22-5.8 8.6 0.4 15.5 4.5 20.1 11.7 5.3 8.4 12.5 13.6 22.6 15.2 7.7 1.2 12.1 5.8 12.4 11.7 0.3 8-5.6 16.7-13 18.8-2.6 0.8-5.3 1-7.1 1.3zm-50.4-24.2q0 9.6 0 19.2c0 4.4 1.6 5.4 5.3 3.2q15.5-9.1 30.9-18.4c4.3-2.5 4.3-5.1 0-7.7q-15.5-9.3-31-18.4c-3.5-2.1-5.2-1.1-5.2 2.9-0.1 6.4 0 12.8 0 19.2z"/><path class="a" d="m96.5 44.8c-0.1 5.3-1.5 9.8-4.6 13.7-3.8 4.7-9.3 5.1-13.7 1-7.7-7-8.4-23-1.4-30.7 4.1-4.5 9.8-4.6 14.1-0.1 4.4 4.7 5.2 10.5 5.6 16.1z"/><path class="a" d="m66.8 43.3c0 8-2.9 13-7.8 14.3-4.6 1.2-10-1.9-13.3-7.7-3.7-6.4-5.3-13.1-2.6-20.3 2.7-7.2 9.4-9.1 15.4-4.2 5.9 4.8 8.2 11.3 8.3 17.9z"/><path class="a" d="m42.8 62.9c-0.3 1.5-0.4 3.4-1 5.1-2 6.4-7.6 8.3-13.3 4.8-8.1-5.1-12.6-16.7-10-25.9 2-6.7 7.3-8.9 13.3-5.1 7.5 4.8 10.2 12.3 11 21.1z"/><path class="a" d="m1.7 79.9c0-8.1 6.4-12.3 13.9-9.1 8.4 3.5 14.6 14.4 12.8 22.6-1.2 5.3-5.2 8-10.6 7-8.3-1.4-16.2-11.6-16.1-20.5z"/><path class="a" d="m99.8 64.2c-0.1-4.8 1-9.2 4.7-12.6 3.3-3.1 6.8-3.3 10.4-0.7 8 5.7 9.6 21.1 2.9 28.3-3.4 3.6-8 3.9-11.8 0.7-4.9-4.1-6.3-9.6-6.2-15.7z"/><path class="a" d="m42 0.9c3.5 5.3 7 10.7 10.9 16.7-2.8 1-5.3 2-7.8 2.5-0.7 0.1-2.3-1.2-2.4-2-0.9-5.5-1.5-11.1-2.3-16.7z"/><path class="a" d="m102.9 28.7c5.7 1.7 11.6 10.4 11.7 16.9-4.8 1.6-6.6 0.8-8-3.8-1.3-4.2-2.4-8.5-3.7-13.1z"/><path class="a" d="m20.4 17.8c1.1 5.7 2.1 10.9 3 16.1 0.4 2.6-0.1 3-5.2 5.5-3-5.4-2.1-16.9 2.2-21.6z"/><path class="a" d="m87.6 21.5c-6.3 1.8-6.6 1.7-9-3.5-1.8-3.9-3.6-7.9-5.1-12.1 7 3.1 11.4 8.4 14.1 15.6z"/></svg>