<?xml version="1.0" encoding="UTF-8"?><svg style="fill:#fff;" id="Layer_2" xmlns="http://www.w3.org/2000/svg" viewBox="0 0 560.61 583.64"><defs><style>.cls-1{fill:none;}.cls-2,.cls-3{fill:#fff;}.cls-3{stroke:none;stroke-miterlimit:10;stroke-width:14px;fill:#fff;}</style></defs><g id="Layer_1-2"><g id="Free_Stay_Icon"><path class="cls-1" d="m223.63,393.83c11.19,6.72,23.37,10.93,36.81,13.52-.86,7.21-1.7,14.15-2.52,21.09-.32,2.69.18,4.59,3.57,4.43,3.32-.16,6.65.01,9.98-.04,5.87-.1,9.27-2.85,10.33-8.74.96-5.35,1.59-10.76,2.31-15.75,5.04-.89,9.59-1.38,13.97-2.52,13.7-3.59,25.41-10.24,34.23-21.79,8.97-11.76,12.05-24.98,11.4-39.39-.54-11.94-5.5-21.46-15.2-28.67-9.17-6.81-19.68-10.5-30.36-13.86-2.38-.75-3.62-1.71-3.38-4.41.77-8.82,1.26-17.66,2.1-26.47.45-4.72,1.43-9.39,2.21-14.35,6.89,2.67,13,5.55,19.41,7.31,2.9.8,7.63.59,9.39-1.23,5.11-5.27,9.14-11.59,13.62-17.54-1.6-1.11-2.46-1.57-3.16-2.2-9.38-8.61-20.46-14.15-32.76-16.79-4.33-.93-3.96-2.91-3.62-5.81.72-6.28,1.43-12.57,2.2-19.39-2.51,0-4,0-5.48,0-2.99,0-5.99-.08-8.98.02-5.91.2-9.54,3.91-9.89,9.77-.21,3.59-.54,7.18-1.09,10.72-.14.89-1.18,2.11-2.02,2.33-2.34.61-4.78.87-7.2,1.11-13.68,1.35-25.56,6.93-35.32,16.36-11.36,10.98-16.27,24.55-15.33,40.57.86,14.58,7.09,25.65,18.67,34.22,7.35,5.44,15.63,8.49,24.32,10.76,5.92,1.55,6.97,3.56,5.93,9.3-.95,5.27-1.36,10.65-1.92,15.99-.81,7.77-1.55,15.54-2.32,23.27-.57.04-.95.19-1.19.07-7.45-3.68-14.91-7.34-22.31-11.12-6.18-3.16-13.12-2.38-16.5,2.31-3.7,5.13-7.2,10.41-10.58,15.76-.56.89-.55,3.1.08,3.61,3.37,2.73,6.88,5.33,10.59,7.56Zm67.16-56.83c9.43.72,17.56,9.43,16.92,17.88-1.03,13.58-10.06,21.07-20.73,20.76,1.27-12.9,2.54-25.78,3.81-38.65Zm-35.91-66.75c1.58-7.59,10.96-14.17,20.33-13.76-1.19,12.14-2.37,24.25-3.56,36.43-11.8-3.91-18.71-13.36-16.77-22.67Z"/><path class="cls-1" d="m455.48,491.47c-117.75.13-235.5.09-353.25.09-1.5,0-2.99.04-4.49.12-9.12.48-16.14,11.87-12.06,20.21,3,6.13,7.28,9.62,14.31,9.61,59.37-.04,118.75-.02,178.12-.02v.03c43.24,0,86.48,0,129.73,0,16.47,0,32.93-.14,49.39.03,9.53.1,18.28-10.58,14.25-20.44-2.3-5.63-8.81-9.64-16.01-9.63Z"/><path class="cls-1" d="m453.18,583.64h1.86c-.55-.03-1.41-.21-1.86,0Z"/><path d="m498.38,252.67c-7.82-6.69-15.77-13.22-23.7-19.79-9.32-7.71-18.7-15.34-28-23.08-8.55-7.11-16.96-14.38-25.54-21.46-10.31-8.5-20.77-16.82-31.11-25.3-9.97-8.17-19.82-16.49-29.8-24.65-11.98-9.79-24.07-19.44-36.05-29.22-9.87-8.06-19.62-16.26-29.47-24.33-4.65-3.81-9.34-7.6-14.23-11.09-.99-.71-3.41-.65-4.42.09-10.62,7.72-21.16,15.56-31.59,23.55-12.27,9.4-24.37,19.02-36.59,28.47-12.72,9.83-25.53,19.55-38.25,29.38-14.8,11.42-29.64,22.79-44.3,34.39-14.18,11.23-28.18,22.69-42.2,34.13-9.62,7.85-19.29,15.66-28.56,23.91-2.19,1.95-4.11,5.56-4.12,8.41-.15,53.73.02,107.46.09,161.18.05,37.6.08,75.2.08,112.8,0,22.75,17.11,45.99,40.31,51.47,4.63,1.09,9.46,1.37,14.19,2.1h348.09c.45-.21,1.32-.03,1.86,0h.24c13.45-1.17,24.87-6.53,34.61-15.91,11.86-11.43,17.09-25.61,17.11-41.68.13-85.35-.11-170.71.34-256.06.04-8.28-3.68-12.81-8.95-17.33Zm-285.42,129.99c3.38-5.35,6.88-10.63,10.58-15.76,3.38-4.69,10.32-5.47,16.5-2.31,7.4,3.78,14.86,7.44,22.31,11.12.24.12.62-.03,1.19-.07.77-7.74,1.51-15.51,2.32-23.27.56-5.34.97-10.71,1.92-15.99,1.03-5.74-.01-7.75-5.93-9.3-8.69-2.28-16.97-5.32-24.32-10.76-11.58-8.57-17.81-19.63-18.67-34.22-.95-16.02,3.97-29.59,15.33-40.57,9.76-9.44,21.64-15.01,35.32-16.36,2.42-.24,4.86-.49,7.2-1.11.85-.22,1.88-1.44,2.02-2.33.54-3.55.87-7.14,1.09-10.72.35-5.86,3.97-9.56,9.89-9.77,2.99-.1,5.99-.02,8.98-.02,1.48,0,2.97,0,5.48,0-.77,6.83-1.48,13.11-2.2,19.39-.33,2.9-.7,4.88,3.62,5.81,12.3,2.64,23.38,8.18,32.76,16.79.69.64,1.55,1.1,3.16,2.2-4.48,5.94-8.51,12.26-13.62,17.54-1.77,1.82-6.5,2.03-9.39,1.23-6.42-1.77-12.53-4.64-19.41-7.31-.78,4.96-1.75,9.63-2.21,14.35-.85,8.81-1.34,17.66-2.1,26.47-.23,2.7,1,3.66,3.38,4.41,10.68,3.36,21.19,7.05,30.36,13.86,9.69,7.21,14.65,16.73,15.2,28.67.66,14.41-2.42,27.64-11.4,39.39-8.82,11.55-20.53,18.2-34.23,21.79-4.38,1.15-8.94,1.64-13.97,2.52-.72,4.98-1.34,10.4-2.31,15.75-1.06,5.89-4.46,8.64-10.33,8.74-3.33.06-6.66-.12-9.98.04-3.39.16-3.89-1.74-3.57-4.43.83-6.94,1.66-13.88,2.52-21.09-13.44-2.59-25.62-6.81-36.81-13.52-3.71-2.23-7.22-4.84-10.59-7.56-.63-.51-.64-2.72-.08-3.61Zm244.27,138.87c-16.46-.17-32.93-.03-49.39-.03-43.24,0-86.48,0-129.73,0v-.03c-59.37,0-118.75-.02-178.12.02-7.03,0-11.31-3.48-14.31-9.61-4.08-8.34,2.94-19.73,12.06-20.21,1.49-.08,2.99-.12,4.49-.12,117.75,0,235.5.03,353.25-.09,7.2,0,13.71,4,16.01,9.63,4.03,9.86-4.72,20.54-14.25,20.44Z"/><path d="m455.28,583.64h-.24c.09,0,.17,0,.24,0Z"/><path class="cls-3" d="m549.79,229.21c-2.53-2.55-5.36-4.82-8.11-7.14-8.49-7.18-16.95-14.38-25.51-21.46-10.93-9.05-21.97-17.97-32.91-27-8.45-6.97-16.78-14.07-25.24-21.02-10.32-8.49-20.76-16.83-31.06-25.34-8.57-7.08-16.97-14.36-25.52-21.45-11.05-9.16-22.21-18.2-33.28-27.33-9.95-8.21-19.82-16.53-29.78-24.73-10.82-8.91-21.71-17.73-32.54-26.64-7.95-6.53-15.8-13.18-23.81-19.63-.72-.58-2.64-.63-3.37-.09-7.78,5.9-15.44,11.96-23.12,17.98-11.51,9.03-23,18.09-34.52,27.1-11.39,8.91-22.84,17.76-34.22,26.69-11.52,9.03-22.96,18.16-34.48,27.2-11.64,9.13-23.32,18.19-34.99,27.28-11.4,8.89-22.82,17.77-34.21,26.68-11.53,9.02-23.03,18.08-34.55,27.12-11.38,8.93-22.52,18.2-34.25,26.65-8.2,5.91-8.83,15.58-5.28,21.08,5.2,8.07,13.53,9.91,21.91,3.78,4.98-3.64,9.68-7.67,14.57-11.44,14.39-11.11,28.9-22.09,43.21-33.3,16.27-12.75,32.31-25.78,48.58-38.52,14.33-11.23,28.92-22.13,43.25-33.35,16.28-12.75,32.32-25.79,48.6-38.54,16.76-13.13,33.68-26.06,51.53-39.84.92,1.24,1.61,2.68,2.74,3.6,14.49,11.9,29.07,23.69,43.56,35.59,13.5,11.09,26.9,22.29,40.36,33.41,17.11,14.13,34.25,28.22,51.36,42.35,19.13,15.8,38.27,31.59,57.35,47.45,16.33,13.57,32.52,27.32,48.92,40.81,4.04,3.32,7.96,6.74,14.25,6.21,6.61-.56,10.45-3.85,13.08-9.25,2.41-4.95,1.38-10.98-2.53-14.92Z"/><path class="cls-2" d="m307.71,354.89c.64-8.45-7.49-17.16-16.92-17.88-1.27,12.87-2.54,25.75-3.81,38.65,10.67.31,19.71-7.18,20.73-20.76Z"/><path class="cls-2" d="m275.22,256.49c-9.38-.41-18.75,6.17-20.33,13.76-1.94,9.31,4.97,18.76,16.77,22.67,1.19-12.17,2.38-24.28,3.56-36.43Z"/></g></g></svg>