<svg xmlns="http://www.w3.org/2000/svg" viewBox="0 0 99.03 120.14" fill="#fff"><g id="Layer_2" data-name="Layer 2"><g id="Layer_1-2" data-name="Layer 1"><path d="M0,22.34.64,19.7c2-3.1,4.77-5.06,8.63-4.8,13.5.88,24.83-4.22,35-12.49,3.79-3.08,7.18-3.29,11-.15C65.62,10.65,77.1,15.56,90.77,15,97,14.8,99.31,17.78,99,24.13c-.66,13.53-1.79,27-2.26,40.58-.59,17.34-8.46,30-22.93,39.23-7.75,4.94-15,10.73-22.41,16.18l-2.46,0q-13.74-9.72-27.47-19.44a41.66,41.66,0,0,1-18.06-31c-.7-6.88-.71-13.82-1.2-20.73C1.58,40.09.73,31.22,0,22.34ZM50.05,82.15a24.92,24.92,0,0,0-.36-49.83,24.92,24.92,0,1,0,.36,49.83Z"/><path d="M45.14,58.26A2,2,0,0,0,48,58a114,114,0,0,1,8.19-9.73c.79-.79,2.16-1,3.56-1.17A2,2,0,0,1,62,49a5.62,5.62,0,0,1-.51,3.37C58,57.31,54,61.91,50.2,66.65c-2.06,2.59-4.23,2.82-6.6.39-1.72-1.76-3.89-3.24-5.1-5.29a6.91,6.91,0,0,1-.65-3.35,2,2,0,0,1,2.17-2A15.78,15.78,0,0,1,43.4,57,4.7,4.7,0,0,1,45.14,58.26Z"/></g></g></svg>