<svg xmlns="http://www.w3.org/2000/svg" viewBox="0 0 111.54 91.63" fill="#fff"><g id="Layer_2" data-name="Layer 2"><g id="Layer_1-2" data-name="Layer 1"><path d="M96.22,12.12c-.78.37-4,1.59-4.59,1.76L6.23,40.52c-1,.29-2,.95-2.83.76a12.21,12.21,0,0,1-1.18-.34A3.15,3.15,0,0,1,1,35.64a2.13,2.13,0,0,1,.63-.37C9.73,32.43,18,30,26.12,27.44L90.62,7.26c.88-.27,1.63-.49,2.46-.82.18-.07.28-.07.16-.34L90.54.69A.48.48,0,0,1,91,0c2.79.24,2.49.18,6.36.56,3.58.36,10,1.12,12.72,1.44,1.41.16,1.81.42,1.21,1.39-1.14,1.81-9,13.84-10.46,15.38a.6.6,0,0,1-.79.08c-.35-.32-1.7-3-2.57-4.55"/><path d="M87.14,29.87a2.33,2.33,0,0,1,2.15-1.37c4.8,0,9.74-.14,14.65.15,1.11.07,3,2,3,3.07.19,18.78.11,37.57.17,56.36,0,2.51-.82,3.58-3.43,3.51-4.45-.13-8.93.17-13.36-.17-1.22-.1-3.32-1.84-3.32-2.84-.15-19.44-.06-38.88,0-58.32A1,1,0,0,1,87.14,29.87Z"/><path d="M57.94,64c0-7.57.1-15.15-.06-22.72-.06-3,.92-4.19,3.95-4.08,4.12.16,8.25.14,12.36,0,2.9-.1,4.13.87,4.11,3.95q-.17,23.22,0,46.43c0,2.92-.86,4.21-4,4a109.3,109.3,0,0,0-11.87,0c-3.38.2-4.69-.88-4.59-4.43C58.09,79.45,57.94,71.71,57.94,64Z"/><path d="M47,91.54c-5.27,0-10.66.11-16-.16a1.82,1.82,0,0,1-1.69-1.78c-.16-13.66-.13-27.32-.12-41.62a2.22,2.22,0,0,1,2.21-2.22c5.39,0,10.43-.1,15.45.14.87,0,2.37,1.89,2.37,2.92.11,13.65,0,27.3-.07,41a1.19,1.19,0,0,1-.08.4A2.15,2.15,0,0,1,47,91.54Z"/><path d="M3.57,91.54A3.24,3.24,0,0,1,.35,88.31c0-10.84,0-21.26.11-31.67,0-.78,1.56-2.15,2.45-2.19a115.47,115.47,0,0,1,14.29,0c1.1.08,2.89,2.13,2.91,3.3.23,10.17.21,20.36,0,30.54,0,1.09-1.62,3-2.57,3.07C13,91.63,8.44,91.57,3.57,91.54Z"/></g></g></svg>