<svg xmlns="http://www.w3.org/2000/svg" viewBox="0 0 98.35 152.26" fill="#fff"><g id="Layer_2" data-name="Layer 2"><g id="Layer_1-2" data-name="Layer 1"><path d="M75.39,8.55c2.67.06,6.57,3.66,7.8,7,2.28,6.13,4.56,10.28,10.51,14.4,4.59,3.17,5.32,7.69,4.17,13.46a45.48,45.48,0,0,0,0,17.44c1.1,5.73-.52,9.33-4.33,13.32a60.27,60.27,0,0,0-10,14c-2.68,5.23-5.9,7.87-11.89,8.48a41,41,0,0,0-16.32,5.57,12.15,12.15,0,0,1-12.49.11,45.9,45.9,0,0,0-17.12-5.7c-5.4-.73-8.39-3.08-10.95-7.85A65.14,65.14,0,0,0,4.05,73.81C-.14,69.59-.28,65.33.35,60a58,58,0,0,0,0-16c-1-6.3.18-10.75,5.14-15A35,35,0,0,0,14,17C16.66,11.21,20,8.74,26.62,7.86A39.12,39.12,0,0,0,43.71,1.52a9.55,9.55,0,0,1,10-.23C60.33,5.15,67.16,8.37,75.39,8.55ZM48.73,84.37a32.38,32.38,0,0,0,32.63-32c.26-17.51-14.5-32.79-31.95-33.07S17.19,33.7,17.11,51.64C17,70,30.85,84.32,48.73,84.37Z"/><path d="M20.51,101.77l9.63,1.55a4.09,4.09,0,0,1,3.4,4.66c-1.42,9.17-2.82,18.27-4.32,28a4.09,4.09,0,0,0,5.25,4.53c9.66-2.93,19-3.55,28.85,0a4.09,4.09,0,0,0,5.4-4.44c-.9-6.35-1.69-11.89-2.48-17.43-.66-4.56-3.19-10.23-1.39-13.36,1.51-2.63,8-2.31,12.35-3.31h0a4.1,4.1,0,0,1,5,3.27c1.27,7.16,2.51,14.15,3.69,21.15,1.11,6.65,1.88,13.36,3.21,20,1,5.14-.32,6.74-5.45,5.3-9.43-2.64-18.86-5.29-28.42-7.36a29.1,29.1,0,0,0-12.08-.06c-9.75,2.17-19.34,5-29,7.69-4.25,1.18-6-.3-5.3-4.67q3.43-21,6.93-42A4.1,4.1,0,0,1,20.51,101.77Z"/><path d="M49.92,31.06l5.71,11.57a.93.93,0,0,0,.7.5L69.09,45a.94.94,0,0,1,.52,1.59l-9.24,9a.89.89,0,0,0-.26.82l2.18,12.71a.93.93,0,0,1-1.35,1l-11.42-6a.88.88,0,0,0-.86,0l-11.41,6a.93.93,0,0,1-1.35-1L38.08,56.4a.93.93,0,0,0-.27-.82l-9.24-9A.94.94,0,0,1,29.09,45l12.76-1.86a.93.93,0,0,0,.7-.5l5.71-11.57A.92.92,0,0,1,49.92,31.06Z"/></g></g></svg>