<svg xmlns="http://www.w3.org/2000/svg" viewBox="0 0 134.62 81.11" fill="#fff"><g id="Layer_2" data-name="Layer 2"><g id="Layer_1-2" data-name="Layer 1"><path d="M134.58,44.8a1.49,1.49,0,0,1-1,1.71,70.24,70.24,0,0,1-9.64,3c-.82.17-2.75-1.75-3-3-2.79-12-5.34-24-8-36-.74-3.35.84-4.92,4-5.38a16.78,16.78,0,0,0,3.4-.67c3.83-1.43,5.41.26,6.16,3.88,2.25,11,4.64,21.87,7,32.79a26.38,26.38,0,0,0,.91,3.15A3.15,3.15,0,0,1,134.58,44.8Z"/><path d="M92,65.12c-2.25,5.72-2.67,5.9-7.43,3.2-8.47-4.79-16.83-9.8-25.46-14.3C57,52.9,54,53.36,51.39,53.18c-.43,0-1,.62-1.33.53-5.17-1.24-10.32-2.56-15.47-3.85-1.42-.36-3.13-1.37-4.2-.91-5,2.12-8.74-1-13.41-2.61,2.54-11.88,5-23.57,7.6-35.57,10,2,16.16-5.57,24.05-8.8a17.55,17.55,0,0,1,8.15-1C45.55,6.26,46.84,17.35,44.2,26.26c-1.34,4.54,2.09,8,7.51,9.2,4.64,1,8.07-.85,9.59-5.5,1-3,1.65-6,2.5-9,1.81-6.4,6.09-8.13,11.66-4.7,9.55,5.88,19,11.9,28.69,17.6,3.92,2.3,4.93,4.54,1.2,8.24-6.34-3.58-12.7-7.3-19.21-10.75-1.34-.71-3.23-.39-4.86-.55.9,1.46,1.46,3.47,2.76,4.28,6.16,3.8,12.52,7.27,19.25,11.11l-3.14,5.62C93.49,48,87.25,44.37,80.85,41c-1.41-.73-3.4-.35-5.12-.48,1,1.42,1.66,3.36,3,4.19,6.17,3.79,12.54,7.27,19.17,11-1.07,1.89-2,3.54-3.18,5.62C88.09,57.65,81.88,54,75.5,50.64c-1.44-.75-3.46-.4-5.21-.55,1,1.43,1.65,3.39,3,4.22C79.46,58.1,85.81,61.57,92,65.12Z"/><path d="M109.37,11.1c2.51,11.63,5,23,7.5,34.79L107.5,48.4c1.73-3.1,3-5.26,4.16-7.46,1.94-3.66,1.15-6.83-2.28-9Q91.56,20.78,73.58,9.84c-3.44-2.08-11.84,2.5-13.39,7.21-1.18,3.59-2.08,7.26-3,10.93-.7,2.79-2.18,3.88-5.06,2.91-2.67-.9-4.36-2.27-3.46-5.42,1.32-4.58,2.45-9.22,3.89-13.76.41-1.29,1.59-2.36,2.5-3.47.29-.36.84-.5,1.27-.76C72.6-2.46,72.6-2.46,89,7.28,98.85,13.12,98.85,13.12,109.37,11.1Z"/><path d="M21.38,8.9,14.9,39.16q-.32,1.44-.6,2.88c-1.5,7.37-1.78,7.33-9,6.19-5-.79-6.08-2.73-4.84-7.65C3.25,29.62,5.41,18.5,7.66,7.4,8.36,4,9.81,2.31,13.41,3.75,16.37,4.93,21.27,3.22,21.38,8.9Z"/><path d="M59.87,59.4,50.59,75.64l-5.71-3.15C48.05,67,51,61.8,54.16,56.38Z"/><path d="M69.46,64.89,60.18,81.11,54.48,78l9.3-16.22Z"/><path d="M42.25,54.86l5.57,3.21L40.89,70.25,35.23,67Z"/><path d="M31.49,64.45C25,61.71,25,61,31,53.14L36.27,56Z"/></g></g></svg>