<svg xmlns="http://www.w3.org/2000/svg" viewBox="0 0 149.53 122.99" fill="#fff"><g id="Layer_2" data-name="Layer 2"><g id="Layer_1-2" data-name="Layer 1"><path d="M149.53,106.11c-14.37,5.66-28.82,7.64-44.34,7.08,1.09-14-.11-26.85-13.25-34.5,4.42-13.77,4.19-16.09-2.77-27.2,22.26-3.49,54-5.12,59.52,23.05C149.78,84.85,149.18,95.65,149.53,106.11Z"/><path d="M65.07,123l-18.61-4.45c.42-9.4-2.19-18.9,4.27-27.27a17.58,17.58,0,0,1,13.5-7.18,133.06,133.06,0,0,1,15.34,0c10.21.63,16.67,7.17,17.36,17.31.22,3.28.21,6.59.14,9.89-.18,8,1.8,7.13-7.6,9.72-2.19.61-4.35,1.32-6.52,2Z"/><path d="M55.79,50.19c-6.07,8.42-8.07,16.45-4.42,25.48.46,1.12,0,3.51-.88,4.13-9.4,6.62-12.12,16-11.73,26.84.07,1.94,0,3.89,0,7.44L.36,106.86C.36,96-.59,86.14.58,76.57,2.36,62,13,51.84,27.47,50.37,36.58,49.44,45.86,50.19,55.79,50.19Z"/><path d="M41.14.05c13.58,0,24,10.22,24,23.63s-10.3,23.58-23.78,24c-13.18.41-24.14-12.43-24.23-23.74C17.08,11.86,29-.88,41.14.05Z"/><path d="M131.84,23.86c1,15.16-13.23,24.12-23.59,23.83-13.36-.37-24-10.7-24-23.93C84.37,10.24,95,0,108.85.05,122.07.12,131.86,10.27,131.84,23.86Z"/><path d="M86.94,67.66A14.82,14.82,0,0,1,71.87,82.17,14.6,14.6,0,0,1,57.32,67.66a14.81,14.81,0,1,1,29.62,0Z"/></g></g></svg>