<svg width="17" height="16" viewBox="0 0 17 16" fill="none" xmlns="http://www.w3.org/2000/svg">
<g id="arrow-up-right">
<g id="Union">
<path fill-rule="evenodd" clip-rule="evenodd" d="M12.3877 4.43686C12.3584 4.36609 12.315 4.29979 12.2575 4.24226C12.1999 4.18474 12.1336 4.14134 12.0629 4.11206C11.9927 4.08295 11.9158 4.06679 11.8351 4.06653C11.8345 4.06653 11.8338 4.06653 11.8332 4.06653H11.8328H5.16653C4.83516 4.06653 4.56653 4.33516 4.56653 4.66653C4.56653 4.9979 4.83516 5.26653 5.16653 5.26653H10.3847L4.74226 10.9089C4.50795 11.1432 4.50795 11.5231 4.74226 11.7575C4.97658 11.9918 5.35648 11.9918 5.59079 11.7575L11.2332 6.11506V11.3332C11.2332 11.6646 11.5018 11.9332 11.8332 11.9332C12.1646 11.9332 12.4332 11.6646 12.4332 11.3332V4.66653C12.4332 4.58517 12.417 4.5076 12.3877 4.43686Z" fill="black"/>
<path fill-rule="evenodd" clip-rule="evenodd" d="M12.3877 4.43686C12.3584 4.36609 12.315 4.29979 12.2575 4.24226C12.1999 4.18474 12.1336 4.14134 12.0629 4.11206C11.9927 4.08295 11.9158 4.06679 11.8351 4.06653C11.8345 4.06653 11.8338 4.06653 11.8332 4.06653H11.8328H5.16653C4.83516 4.06653 4.56653 4.33516 4.56653 4.66653C4.56653 4.9979 4.83516 5.26653 5.16653 5.26653H10.3847L4.74226 10.9089C4.50795 11.1432 4.50795 11.5231 4.74226 11.7575C4.97658 11.9918 5.35648 11.9918 5.59079 11.7575L11.2332 6.11506V11.3332C11.2332 11.6646 11.5018 11.9332 11.8332 11.9332C12.1646 11.9332 12.4332 11.6646 12.4332 11.3332V4.66653C12.4332 4.58517 12.417 4.5076 12.3877 4.43686Z" fill="url(#paint0_linear_561_84855)"/>
</g>
</g>
<defs>
<linearGradient id="paint0_linear_561_84855" x1="11.5001" y1="5.50012" x2="8.49986" y2="11.2637" gradientUnits="userSpaceOnUse">
<stop/>
<stop offset="1" stop-color="#999999"/>
</linearGradient>
</defs>
</svg>
