<svg width="32" height="32" viewBox="0 0 32 32" fill="none" xmlns="http://www.w3.org/2000/svg">
<path id="Union" fill-rule="evenodd" clip-rule="evenodd" d="M16 30C23.732 30 30 23.732 30 16C30 8.26801 23.732 2 16 2C8.26801 2 2 8.26801 2 16C2 23.732 8.26801 30 16 30ZM16 32C24.8366 32 32 24.8366 32 16C32 7.16344 24.8366 0 16 0C7.16344 0 0 7.16344 0 16C0 24.8366 7.16344 32 16 32ZM11.4286 11.7524C12.0913 11.7524 12.6286 12.2896 12.6286 12.9524V18.2857C12.6286 18.9485 12.0913 19.4857 11.4286 19.4857C10.7658 19.4857 10.2286 18.9485 10.2286 18.2857V12.9524C10.2286 12.2896 10.7658 11.7524 11.4286 11.7524ZM21.0095 12.9524C21.0095 12.2896 20.4723 11.7524 19.8095 11.7524C19.1468 11.7524 18.6095 12.2896 18.6095 12.9524V18.2857C18.6095 18.9485 19.1468 19.4857 19.8095 19.4857C20.4723 19.4857 21.0095 18.9485 21.0095 18.2857V12.9524Z" fill="white"/>
</svg>
